<?xml version="1.0" standalone="no"?>
<!DOCTYPE svg PUBLIC "-//W3C//DTD SVG 20010904//EN"
 "http://www.w3.org/TR/2001/REC-SVG-20010904/DTD/svg10.dtd">
<svg version="1.0" xmlns="http://www.w3.org/2000/svg"
 width="512.000000pt" height="512.000000pt" viewBox="0 0 512.000000 512.000000"
 preserveAspectRatio="xMidYMid meet">

<g transform="translate(0.000000,512.000000) scale(0.100000,-0.100000)"
fill="#000000" stroke="none">
<path d="M593 4574 c-61 -30 -63 -46 -63 -414 0 -279 2 -337 15 -365 32 -66
116 -79 169 -26 l31 31 3 285 3 284 284 3 285 3 31 31 c52 53 40 137 -25 168
-48 22 -687 23 -733 0z"/>
<path d="M1870 4572 c-50 -24 -70 -83 -46 -133 32 -69 115 -84 168 -31 52 51
38 135 -27 167 -42 19 -52 19 -95 -3z"/>
<path d="M2510 4572 c-50 -24 -70 -83 -46 -133 32 -69 115 -84 168 -31 52 51
38 135 -27 167 -42 19 -52 19 -95 -3z"/>
<path d="M3150 4572 c-50 -24 -70 -83 -46 -133 32 -69 115 -84 168 -31 52 51
38 135 -27 167 -42 19 -52 19 -95 -3z"/>
<path d="M3793 4574 c-39 -19 -67 -74 -58 -114 8 -38 48 -76 86 -84 18 -3 148
-6 290 -6 l259 0 0 -271 c0 -224 3 -277 15 -304 32 -66 116 -79 169 -26 l31
31 0 354 c0 388 -1 392 -60 421 -49 23 -685 22 -732 -1z"/>
<path d="M593 3294 c-29 -15 -63 -65 -63 -94 0 -30 34 -80 65 -94 91 -43 184
58 136 148 -14 25 -66 56 -93 56 -7 0 -27 -8 -45 -16z"/>
<path d="M3127 3299 c-173 -28 -316 -175 -348 -356 l-11 -61 -146 -4 c-147 -3
-147 -3 -212 -39 -75 -41 -129 -105 -154 -181 -13 -41 -16 -98 -16 -305 l0
-255 34 -34 c32 -32 38 -34 105 -34 l70 0 3 -732 c3 -729 3 -733 25 -780 30
-66 104 -141 166 -169 l52 -24 699 -3 c774 -3 763 -4 848 61 49 37 102 111
119 165 7 25 13 270 16 760 l6 722 67 0 c53 0 73 4 93 21 44 34 49 73 45 334
-5 278 -11 304 -89 389 -76 84 -122 100 -301 104 l-148 4 0 32 c0 44 -27 133
-56 182 -31 53 -119 136 -173 164 -80 40 -159 50 -411 48 -129 0 -257 -4 -283
-9z m588 -228 c67 -30 125 -113 125 -178 0 -10 -92 -13 -429 -13 l-428 0 7 41
c11 57 56 118 109 146 43 22 51 23 310 23 236 0 271 -3 306 -19z m589 -415
c52 -22 66 -50 66 -133 l0 -73 -960 0 -960 0 0 61 c0 35 7 75 16 94 32 68 -14
65 942 65 715 0 868 -2 896 -14z m-146 -1132 l-3 -716 -33 -29 -32 -29 -681 0
-681 0 -29 29 -29 29 0 716 0 716 745 0 745 0 -2 -716z"/>
<path d="M2943 2015 c-64 -28 -64 -25 -61 -535 l3 -460 26 -26 c16 -16 41 -28
67 -31 37 -5 45 -2 77 30 l35 35 0 464 c0 514 2 496 -66 524 -40 17 -41 17
-81 -1z"/>
<path d="M3374 2020 c-12 -4 -31 -21 -43 -36 -21 -26 -21 -32 -21 -485 0 -316
3 -466 11 -483 28 -60 122 -71 170 -20 l24 26 3 459 c3 511 3 507 -63 535 -39
16 -51 16 -81 4z"/>
<path d="M3793 2014 c-62 -31 -63 -35 -63 -518 0 -480 1 -491 59 -520 16 -9
40 -16 53 -16 37 0 85 35 97 72 7 22 10 180 8 478 -2 488 -1 475 -63 505 -40
19 -51 19 -91 -1z"/>
<path d="M4430 3292 c-50 -24 -70 -83 -46 -133 32 -69 115 -84 168 -31 52 51
38 135 -27 167 -42 19 -52 19 -95 -3z"/>
<path d="M593 2654 c-17 -9 -39 -31 -48 -50 -50 -106 84 -198 168 -115 51 50
36 135 -28 166 -41 19 -52 19 -92 -1z"/>
<path d="M593 2014 c-17 -9 -39 -31 -48 -50 -50 -106 84 -198 168 -115 51 50
36 135 -28 166 -41 19 -52 19 -92 -1z"/>
<path d="M593 1374 c-61 -30 -63 -46 -63 -414 0 -279 2 -337 15 -365 29 -59
33 -60 421 -60 l354 0 31 31 c53 53 40 137 -26 169 -27 12 -80 15 -303 15
l-271 0 -3 283 c-3 309 -4 313 -64 342 -40 19 -51 19 -91 -1z"/>
<path d="M1873 734 c-17 -9 -39 -31 -48 -50 -50 -106 86 -200 169 -117 52 51
37 136 -29 167 -41 20 -52 20 -92 0z"/>
</g>
</svg>
